<?xml version="1.0" encoding="UTF-8"?>
<!DOCTYPE svg PUBLIC "-//W3C//DTD SVG 1.1//EN" "http://www.w3.org/Graphics/SVG/1.1/DTD/svg11.dtd">
<svg version="1.2" width="330.2mm" height="215.9mm" viewBox="0 0 33020 21590" preserveAspectRatio="xMidYMid" fill-rule="evenodd" stroke-width="28.222" stroke-linejoin="round" xmlns="http://www.w3.org/2000/svg" xmlns:ooo="http://xml.openoffice.org/svg/export" xmlns:xlink="http://www.w3.org/1999/xlink" xmlns:presentation="http://sun.com/xmlns/staroffice/presentation" xmlns:smil="http://www.w3.org/2001/SMIL20/" xmlns:anim="urn:oasis:names:tc:opendocument:xmlns:animation:1.0" xmlns:svg="urn:oasis:names:tc:opendocument:xmlns:svg-compatible:1.0" xml:space="preserve">
 <defs class="ClipPathGroup">
  <clipPath id="presentation_clip_path" clipPathUnits="userSpaceOnUse">
   <rect x="0" y="0" width="33020" height="21590"/>
  </clipPath>
  <clipPath id="presentation_clip_path_shrink" clipPathUnits="userSpaceOnUse">
   <rect x="33" y="21" width="32954" height="21547"/>
  </clipPath>
 </defs>
 <defs class="TextShapeIndex">
  <g ooo:slide="id1" ooo:id-list="id3 id4 id5 id6 id7 id8 id9 id10 id11"/>
 </defs>
 <defs class="EmbeddedBulletChars">
  <g id="bullet-char-template-57356" transform="scale(0.00048828125,-0.00048828125)">
   <path d="M 580,1141 L 1163,571 580,0 -4,571 580,1141 Z"/>
  </g>
  <g id="bullet-char-template-57354" transform="scale(0.00048828125,-0.00048828125)">
   <path d="M 8,1128 L 1137,1128 1137,0 8,0 8,1128 Z"/>
  </g>
  <g id="bullet-char-template-10146" transform="scale(0.00048828125,-0.00048828125)">
   <path d="M 174,0 L 602,739 174,1481 1456,739 174,0 Z M 1358,739 L 309,1346 659,739 1358,739 Z"/>
  </g>
  <g id="bullet-char-template-10132" transform="scale(0.00048828125,-0.00048828125)">
   <path d="M 2015,739 L 1276,0 717,0 1260,543 174,543 174,936 1260,936 717,1481 1274,1481 2015,739 Z"/>
  </g>
  <g id="bullet-char-template-10007" transform="scale(0.00048828125,-0.00048828125)">
   <path d="M 0,-2 C -7,14 -16,27 -25,37 L 356,567 C 262,823 215,952 215,954 215,979 228,992 255,992 264,992 276,990 289,987 310,991 331,999 354,1012 L 381,999 492,748 772,1049 836,1024 860,1049 C 881,1039 901,1025 922,1006 886,937 835,863 770,784 769,783 710,716 594,584 L 774,223 C 774,196 753,168 711,139 L 727,119 C 717,90 699,76 672,76 641,76 570,178 457,381 L 164,-76 C 142,-110 111,-127 72,-127 30,-127 9,-110 8,-76 1,-67 -2,-52 -2,-32 -2,-23 -1,-13 0,-2 Z"/>
  </g>
  <g id="bullet-char-template-10004" transform="scale(0.00048828125,-0.00048828125)">
   <path d="M 285,-33 C 182,-33 111,30 74,156 52,228 41,333 41,471 41,549 55,616 82,672 116,743 169,778 240,778 293,778 328,747 346,684 L 369,508 C 377,444 397,411 428,410 L 1163,1116 C 1174,1127 1196,1133 1229,1133 1271,1133 1292,1118 1292,1087 L 1292,965 C 1292,929 1282,901 1262,881 L 442,47 C 390,-6 338,-33 285,-33 Z"/>
  </g>
  <g id="bullet-char-template-9679" transform="scale(0.00048828125,-0.00048828125)">
   <path d="M 813,0 C 632,0 489,54 383,161 276,268 223,411 223,592 223,773 276,916 383,1023 489,1130 632,1184 813,1184 992,1184 1136,1130 1245,1023 1353,916 1407,772 1407,592 1407,412 1353,268 1245,161 1136,54 992,0 813,0 Z"/>
  </g>
  <g id="bullet-char-template-8226" transform="scale(0.00048828125,-0.00048828125)">
   <path d="M 346,457 C 273,457 209,483 155,535 101,586 74,649 74,723 74,796 101,859 155,911 209,963 273,989 346,989 419,989 480,963 531,910 582,859 608,796 608,723 608,648 583,586 532,535 482,483 420,457 346,457 Z"/>
  </g>
  <g id="bullet-char-template-8211" transform="scale(0.00048828125,-0.00048828125)">
   <path d="M -4,459 L 1135,459 1135,606 -4,606 -4,459 Z"/>
  </g>
  <g id="bullet-char-template-61548" transform="scale(0.00048828125,-0.00048828125)">
   <path d="M 173,740 C 173,903 231,1043 346,1159 462,1274 601,1332 765,1332 928,1332 1067,1274 1183,1159 1299,1043 1357,903 1357,740 1357,577 1299,437 1183,322 1067,206 928,148 765,148 601,148 462,206 346,322 231,437 173,577 173,740 Z"/>
  </g>
 </defs>
 <g>
  <g id="id2" class="Master_Slide">
   <g id="bg-id2" class="Background"/>
   <g id="bo-id2" class="BackgroundObjects"/>
  </g>
 </g>
 <g class="SlideGroup">
  <g>
   <g id="container-id1">
    <g id="id1" class="Slide" clip-path="url(#presentation_clip_path)">
     <g class="Page">
      <g class="Group">
       <g class="com.sun.star.drawing.ClosedBezierShape">
        <g id="id3">
         <rect class="BoundingBox" stroke="none" fill="none" x="1009" y="5519" width="6534" height="9086"/>
         <path fill="rgb(0,0,0)" stroke="none" d="M 6121,5520 L 6121,11613 7542,11613 7542,12348 6121,12348 6121,14603 5316,14603 5316,12348 1010,12348 1010,11613 C 1411,11157 1818,10671 2231,10153 2643,9636 3037,9110 3413,8576 3790,8042 4136,7514 4453,6992 4771,6471 5037,5980 5253,5520 L 6121,5520 Z M 5316,11613 L 5316,6818 C 5003,7359 4692,7862 4384,8329 4075,8796 3776,9228 3486,9627 3197,10027 2920,10391 2656,10720 2391,11050 2149,11347 1929,11613 L 5316,11613 Z"/>
        </g>
       </g>
       <g class="com.sun.star.drawing.PolyPolygonShape">
        <g id="id4">
         <rect class="BoundingBox" stroke="none" fill="none" x="6114" y="13082" width="766" height="500"/>
         <path fill="rgb(0,0,0)" stroke="none" d="M 6115,13580 L 6115,13083 6878,13083 6878,13580 6115,13580 Z"/>
         <path fill="none" stroke="rgb(0,0,0)" d="M 6115,13580 L 6115,13083 6878,13083 6878,13580 6115,13580 Z"/>
        </g>
       </g>
       <g class="Group">
        <g class="com.sun.star.drawing.ClosedBezierShape">
         <g id="id5">
          <rect class="BoundingBox" stroke="none" fill="none" x="7894" y="11546" width="1989" height="3097"/>
          <path fill="rgb(0,0,0)" stroke="none" d="M 9881,12447 C 9768,12385 9636,12355 9486,12355 9281,12355 9122,12429 9007,12579 8892,12728 8834,12932 8834,13189 L 8834,14641 7895,14641 7895,11600 8834,11600 8834,12165 8846,12165 C 8995,11753 9263,11547 9649,11547 9748,11547 9826,11559 9881,11582 L 9881,12447 Z"/>
         </g>
        </g>
        <g class="com.sun.star.drawing.ClosedBezierShape">
         <g id="id6">
          <rect class="BoundingBox" stroke="none" fill="none" x="10056" y="11525" width="3297" height="3192"/>
          <path fill="rgb(0,0,0)" stroke="none" d="M 11689,14716 C 11181,14716 10782,14574 10492,14289 10202,14005 10056,13620 10056,13133 10056,12630 10207,12236 10508,11952 10810,11668 11217,11526 11731,11526 12236,11526 12632,11668 12920,11952 13207,12236 13351,12612 13351,13079 13351,13584 13203,13983 12907,14276 12610,14569 12204,14716 11689,14716 Z M 11713,12245 C 11491,12245 11318,12321 11195,12473 11072,12626 11011,12842 11011,13121 11011,13705 11247,13997 11719,13997 12169,13997 12394,13697 12394,13097 12394,12529 12167,12245 11713,12245 Z"/>
         </g>
        </g>
        <g class="com.sun.star.drawing.ClosedBezierShape">
         <g id="id7">
          <rect class="BoundingBox" stroke="none" fill="none" x="13957" y="11525" width="4837" height="3118"/>
          <path fill="rgb(0,0,0)" stroke="none" d="M 18792,14641 L 17856,14641 17856,12907 C 17856,12465 17693,12245 17368,12245 17213,12245 17088,12311 16990,12444 16893,12576 16845,12742 16845,12940 L 16845,14641 15905,14641 15905,12889 C 15905,12460 15746,12245 15426,12245 15266,12245 15137,12308 15041,12435 14945,12561 14897,12734 14897,12951 L 14897,14641 13958,14641 13958,11600 14897,11600 14897,12075 14909,12075 C 15006,11913 15142,11781 15318,11679 15493,11577 15685,11526 15893,11526 16323,11526 16618,11715 16776,12093 17008,11715 17349,11526 17799,11526 18461,11526 18792,11934 18792,12750 L 18792,14641 Z"/>
         </g>
        </g>
        <g class="com.sun.star.drawing.ClosedBezierShape">
         <g id="id8">
          <rect class="BoundingBox" stroke="none" fill="none" x="19307" y="11525" width="2761" height="3192"/>
          <path fill="rgb(0,0,0)" stroke="none" d="M 22067,14641 L 21178,14641 21178,14205 21166,14205 C 20961,14545 20659,14716 20259,14716 19963,14716 19731,14632 19562,14465 19392,14297 19307,14074 19307,13795 19307,13205 19657,12864 20357,12773 L 21184,12663 C 21184,12331 21003,12165 20642,12165 20280,12165 19935,12272 19608,12488 L 19608,11781 C 19738,11714 19917,11655 20144,11603 20371,11552 20578,11526 20764,11526 21633,11526 22067,11959 22067,12824 L 22067,14641 Z M 21184,13406 L 21184,13201 20630,13272 C 20325,13312 20173,13449 20173,13685 20173,13792 20210,13880 20284,13948 20358,14016 20459,14050 20586,14050 20762,14050 20906,13990 21017,13868 21128,13746 21184,13592 21184,13406 Z"/>
         </g>
        </g>
        <g class="com.sun.star.drawing.ClosedBezierShape">
         <g id="id9">
          <rect class="BoundingBox" stroke="none" fill="none" x="22630" y="11525" width="3169" height="4546"/>
          <path fill="rgb(0,0,0)" stroke="none" d="M 25797,14294 C 25797,14858 25634,15295 25307,15605 24980,15915 24506,16070 23885,16070 23475,16070 23150,16011 22910,15895 L 22910,15105 C 23223,15287 23539,15378 23859,15378 24176,15378 24422,15294 24596,15127 24770,14960 24858,14732 24858,14445 L 24858,14205 24846,14205 C 24632,14545 24316,14716 23897,14716 23509,14716 23201,14579 22973,14306 22745,14033 22631,13666 22631,13207 22631,12692 22757,12283 23011,11980 23265,11677 23599,11526 24013,11526 24384,11526 24661,11669 24846,11954 L 24858,11954 24858,11600 25797,11600 25797,14294 Z M 24870,13180 L 24870,12940 C 24870,12748 24813,12584 24699,12448 24585,12313 24436,12245 24254,12245 24046,12245 23882,12326 23763,12488 23645,12651 23585,12879 23585,13174 23585,13428 23642,13628 23755,13776 23868,13923 24022,13997 24218,13997 24413,13997 24570,13922 24690,13773 24810,13623 24870,13426 24870,13180 Z"/>
         </g>
        </g>
        <g class="com.sun.star.drawing.ClosedBezierShape">
         <g id="id10">
          <rect class="BoundingBox" stroke="none" fill="none" x="26400" y="11525" width="2919" height="3192"/>
          <path fill="rgb(0,0,0)" stroke="none" d="M 29317,13388 L 27331,13388 C 27363,13830 27641,14050 28166,14050 28501,14050 28796,13971 29049,13813 L 29049,14490 C 28768,14640 28402,14716 27952,14716 27461,14716 27079,14580 26807,14307 26536,14035 26400,13655 26400,13168 26400,12663 26547,12264 26840,11969 27134,11673 27494,11526 27923,11526 28367,11526 28710,11658 28953,11921 29196,12184 29317,12542 29317,12993 L 29317,13388 Z M 28446,12812 C 28446,12376 28269,12159 27917,12159 27766,12159 27636,12221 27526,12346 27416,12470 27349,12626 27325,12812 L 28446,12812 Z"/>
         </g>
        </g>
        <g class="com.sun.star.drawing.ClosedBezierShape">
         <g id="id11">
          <rect class="BoundingBox" stroke="none" fill="none" x="29672" y="11525" width="2339" height="3192"/>
          <path fill="rgb(0,0,0)" stroke="none" d="M 29672,14561 L 29672,13801 C 29827,13894 29981,13963 30135,14009 30288,14054 30434,14077 30570,14077 30737,14077 30868,14054 30964,14009 31061,13963 31109,13894 31109,13801 31109,13741 31087,13692 31043,13652 31000,13613 30944,13578 30875,13548 30807,13519 30732,13492 30651,13468 30569,13445 30491,13418 30416,13388 30295,13343 30188,13294 30096,13241 30004,13189 29927,13128 29864,13058 29802,12989 29754,12909 29722,12818 29689,12727 29672,12619 29672,12494 29672,12324 29710,12177 29784,12055 29858,11932 29957,11831 30081,11753 30205,11675 30347,11618 30507,11581 30666,11544 30832,11526 31005,11526 31139,11526 31276,11536 31415,11557 31554,11578 31690,11608 31825,11648 L 31825,12372 C 31706,12303 31579,12251 31443,12217 31307,12182 31174,12165 31043,12165 30982,12165 30924,12170 30869,12181 30815,12192 30767,12208 30725,12228 30683,12249 30651,12276 30627,12309 30603,12341 30591,12378 30591,12420 30591,12475 30609,12523 30645,12562 30680,12602 30727,12636 30785,12665 30842,12694 30906,12719 30976,12742 31047,12765 31117,12788 31186,12812 31311,12856 31424,12903 31525,12954 31626,13006 31713,13066 31785,13136 31857,13205 31913,13286 31952,13379 31990,13472 32010,13583 32010,13712 32010,13892 31970,14046 31892,14174 31814,14301 31710,14405 31580,14485 31450,14566 31300,14624 31131,14661 30961,14697 30786,14716 30603,14716 30268,14716 29958,14664 29672,14561 Z"/>
         </g>
        </g>
       </g>
      </g>
     </g>
    </g>
   </g>
  </g>
 </g>
</svg>